<?xml version="1.0" encoding="utf-8"?>
<svg viewBox="0 0 500 500" xmlns="http://www.w3.org/2000/svg">
  <path d="M 339.843 185.326 C 347.564 185.326 353.881 191.021 353.881 199.386 L 353.881 202.198 L 395.994 202.198 C 403.715 202.198 410.032 207.892 410.032 216.257 C 410.032 223.99 403.715 230.316 395.994 230.316 L 394.591 230.316 L 393.467 233.48 C 387.221 250.071 377.675 266.239 365.602 279.455 C 366.234 279.806 366.866 279.595 367.497 280.579 L 380.763 288.523 C 387.431 292.53 389.536 301.177 385.536 307.855 C 381.605 314.533 372.972 316.642 366.304 312.635 L 353.038 304.691 C 349.95 302.794 346.23 300.825 343.844 298.716 C 336.474 303.989 328.472 308.558 320.049 312.354 L 317.452 313.479 C 310.363 316.642 302.081 313.409 298.922 306.308 C 295.763 299.208 298.992 290.913 306.082 287.75 L 308.608 286.625 C 313.1 284.587 317.452 281.704 321.593 279.736 L 313.1 271.16 C 307.555 265.676 307.555 256.819 313.1 251.336 C 318.575 245.782 327.419 245.782 332.894 251.336 L 343.141 261.529 L 343.563 261.318 C 352.266 252.742 359.355 242.056 364.479 229.684 L 289.306 229.684 C 280.954 229.684 275.269 223.99 275.269 215.625 C 275.269 207.892 280.954 201.565 289.306 201.565 L 325.804 201.565 L 325.804 198.753 C 325.804 191.021 331.49 184.693 339.843 184.693 L 339.843 185.326 Z M 137.697 233.972 L 151.033 264.06 L 123.729 264.06 L 137.697 233.972 Z M 25.394 160.019 C 25.394 135.169 45.504 115.029 70.316 115.029 L 429.685 115.029 C 454.462 115.029 474.606 135.169 474.606 160.019 L 474.606 339.981 C 474.606 364.795 454.462 384.971 429.685 384.971 L 70.316 384.971 C 45.504 384.971 25.394 364.795 25.394 339.981 L 25.394 160.019 Z M 250 339.981 L 429.685 339.981 L 429.685 160.019 L 250 160.019 L 250 339.981 Z M 150.541 193.692 C 148.296 188.631 143.242 185.326 137.697 185.326 C 132.152 185.326 127.099 188.631 124.852 193.692 L 79.945 294.92 C 76.801 301.388 79.987 310.315 87.076 313.479 C 94.159 316.642 102.462 313.409 105.621 306.308 L 111.867 291.546 L 163.526 291.546 L 169.774 306.308 C 172.933 313.409 181.215 316.642 188.303 313.479 C 195.393 310.315 198.622 301.388 195.463 294.92 L 150.541 193.692 Z" style="fill: rgb(169, 198, 6);"/>
</svg>